<svg viewBox="0 0 534 534" version="1.1" xmlns="http://www.w3.org/2000/svg"><path fill="#000000"  stroke="none" opacity="1" d="M 394.5 165 L 399.5 166 L 403.5 165 L 405.5 165 L 414.5 166 L 416.5 165 L 417.5 166 L 426.5 166 L 427.5 167 L 438.5 168 L 457.5 174 L 474 184.5 Q 473.3 186.8 475.5 186 L 484 193.5 L 494 207.5 L 502 228.5 L 502 233.5 L 505 244.5 L 505 275.5 L 504 280 Q 515.2 282.5 522 290.5 L 529 302.5 L 530 315.5 L 528 325.5 L 521 337.5 L 506.5 353 L 484.5 367 L 471.5 372 L 467.5 372 L 465.5 374 L 460.5 374 L 448.5 377 L 442.5 383 L 419.5 398 L 396.5 407 Q 386.5 408 379.5 412 L 375.5 412 L 372.5 414 L 341.5 420 L 339.5 419 L 338.5 420 L 317.5 420 L 316.5 421 L 305.5 419 L 303.5 419 Q 291.7 420.3 284.5 417 L 282.5 417 L 275.5 417 L 268.5 420 L 257.5 422 L 241.5 422 L 238.5 421 L 233.5 421 L 218.5 416 Q 210.4 413.1 206 406.5 Q 204.8 401.3 207.5 400 L 217 396.5 L 186.5 380 Q 171 364.5 152.5 352 L 141 340.5 L 131 326 Q 128.3 327.1 129 324.5 L 122 316 Q 119.3 317.1 120 314.5 L 110 303.5 L 101 286.5 L 92.5 276 L 88.5 275 L 74.5 280 L 54.5 282 L 53.5 281 L 46.5 281 L 36.5 279 Q 26.2 274.3 20 265.5 Q 14.1 258.9 12 248.5 L 13 246.5 L 12 243.5 L 15 242 L 17.5 246 L 30.5 247 L 41.5 244 L 57.5 237 L 62.5 236 L 80.5 236 L 86.5 241 L 94.5 229 L 114.5 218 L 120 212.5 L 128.5 196 L 132 197.5 L 140 214.5 L 141 231.5 L 139 242.5 L 132 255 L 122.5 263 L 118 264 Q 116.9 266.7 119.5 266 L 135.5 272 L 157.5 274 L 158.5 275 L 160.5 275 L 171.5 273 L 173.5 274 L 188.5 271 L 205.5 262 L 230.5 244 L 245.5 236 L 267.5 221 L 284.5 206 L 312.5 190 L 334.5 180 L 363.5 170 L 384.5 166 L 393.5 166 L 394.5 165 Z M 407 167 L 406 168 L 381 169 L 362 173 L 336 182 L 323 189 L 316 191 L 301 200 L 297 201 L 282 211 L 265 226 L 244 240 L 229 248 L 207 264 L 190 273 L 174 276 L 171 275 L 161 277 L 159 277 L 158 276 L 150 276 L 133 273 L 123 270 L 117 266 Q 114 267 115 265 L 123 260 Q 136 252 138 232 L 139 229 L 139 221 L 137 212 L 130 199 L 120 217 L 98 230 L 95 232 L 89 242 Q 90 244 86 243 L 84 241 L 81 238 L 63 238 L 50 242 L 46 245 L 32 249 Q 21 250 16 246 L 14 247 L 16 256 L 23 267 L 37 277 L 53 280 L 74 278 L 88 273 L 95 275 L 103 287 L 110 301 L 142 339 L 163 358 Q 177 367 189 379 L 220 395 L 233 388 Q 243 377 258 369 L 285 357 L 292 352 L 292 354 L 281 362 L 263 369 L 249 377 L 233 391 Q 225 393 221 398 L 208 403 L 209 408 L 213 411 L 224 416 L 228 416 L 234 419 L 242 419 L 243 420 L 257 420 L 272 417 Q 274 413 281 413 L 297 402 L 310 382 L 312 381 Q 308 393 300 401 L 298 404 L 282 415 L 284 415 L 286 415 L 293 416 L 295 416 L 297 417 L 308 417 L 310 417 L 313 418 L 315 418 L 345 417 L 347 417 L 371 412 L 375 410 L 379 410 L 401 403 L 420 395 L 445 378 Q 447 379 446 377 L 444 376 Q 441 377 442 374 L 451 374 L 452 373 L 454 374 L 479 367 L 491 361 Q 505 353 515 342 Q 514 339 517 340 L 525 326 L 521 322 Q 516 323 515 321 L 512 322 L 508 321 L 489 322 L 439 337 L 413 337 Q 411 335 407 336 L 391 328 L 385 322 L 383 324 Q 384 327 380 325 L 381 321 L 390 318 Q 391 321 387 320 L 388 324 L 402 332 L 413 335 L 437 335 L 453 330 L 457 330 L 490 319 L 493 320 L 496 319 L 516 319 L 526 323 L 528 317 Q 529 301 522 294 L 507 282 L 489 278 L 466 279 L 453 282 L 441 287 L 439 287 L 444 283 L 455 279 L 471 276 L 490 276 L 502 279 L 503 277 L 503 243 L 500 229 L 494 212 L 487 203 L 485 198 L 473 186 Q 470 187 471 185 L 458 176 L 438 170 L 407 167 Z "/><path fill="#000000"  stroke="none" opacity="1" d="M 388.5 172 L 391 173.5 Q 388 178 381 177 L 380 173 L 385.5 174 L 388.5 172 Z "/><path fill="#000000"  stroke="none" opacity="1" d="M 349.5 292 L 359.5 292 L 368 297.5 L 371 306.5 L 371 308.5 Q 370.4 319.4 363.5 324 L 353.5 330 L 342.5 330 L 334 323.5 L 331 313.5 L 333 306.5 L 339 297 L 349.5 292 Z M 351 295 L 347 298 L 349 301 L 354 299 Q 356 293 351 295 Z M 343 301 L 340 303 Q 335 305 335 312 L 339 314 L 344 312 L 347 308 L 347 301 L 343 301 Z "/></svg>