<svg width="1200" height="1200" xmlns="http://www.w3.org/2000/svg"
  xmlns:xlink="http://www.w3.org/1999/xlink" version="1.1">
  <g transform="scale(13.5) translate(-5.555555555555555, -5.555555555555555)">
    <g fill="#49beb7" stroke="#49beb7" stroke-width="1">
      <path xmlns="http://www.w3.org/2000/svg"
        d="M49.9995117,17.9492188c-7.0185547,0-13.5307617,3.8164062-16.9956055,9.9589844  c-0.2709961,0.4814453-0.1010742,1.0908203,0.3798828,1.3623047c0.4819336,0.2734375,1.0908203,0.1025391,1.3623047-0.3798828  c3.1108398-5.515625,8.9555664-8.9414062,15.253418-8.9414062c6.2988281,0,12.144043,3.4267578,15.2543945,8.9433594  c0.1835938,0.3261719,0.5229492,0.5087891,0.8720703,0.5087891c0.1665039,0,0.3349609-0.0410156,0.4902344-0.1289062  c0.480957-0.2714844,0.6508789-0.8808594,0.3798828-1.3623047C63.5317383,21.765625,57.019043,17.9492188,49.9995117,17.9492188z" />
      <path xmlns="http://www.w3.org/2000/svg"
        d="M71.9750977,24.8828125c0.1835938,0.3261719,0.5229492,0.5087891,0.8720703,0.5087891  c0.1665039,0,0.3349609-0.0410156,0.4902344-0.1289062c0.480957-0.2714844,0.6508789-0.8808594,0.3798828-1.3623047  C68.8823242,15.3261719,59.7944336,10,49.9995117,10c-9.7939453,0-18.8818359,5.3251953-23.7167969,13.8984375  c-0.2709961,0.4814453-0.1010742,1.0908203,0.3798828,1.3623047c0.4819336,0.2734375,1.0908203,0.1025391,1.3623047-0.3798828  C32.5058594,16.9355469,40.9262695,12,49.9995117,12C59.0737305,12,67.4941406,16.9365234,71.9750977,24.8828125z" />
      <path xmlns="http://www.w3.org/2000/svg"
        d="M83.840332,64.0068359H51V47.0469971c5.2119141-0.5046997,9.300293-4.9069824,9.300293-10.2491455  c0-5.6796875-4.6206055-10.3007812-10.300293-10.3007812s-10.300293,4.6210938-10.300293,10.3007812  c0,5.3421631,4.0883789,9.7444458,9.300293,10.2491455v16.9598389H16.159668C12.7631836,64.0068359,10,66.7705078,10,70.1669922  V82.5625c0,0.5527344,0.4477539,1,1,1h3.4760742V89c0,0.5527344,0.4477539,1,1,1h12.5c0.5522461,0,1-0.4472656,1-1v-5.4375  h42.0478516V89c0,0.5527344,0.4477539,1,1,1h12.5c0.5522461,0,1-0.4472656,1-1v-5.4375H89c0.5522461,0,1-0.4472656,1-1V70.1669922  C90,66.7705078,87.2368164,64.0068359,83.840332,64.0068359z M41.699707,36.7978516  c0-4.5771484,3.7236328-8.3007812,8.300293-8.3007812s8.300293,3.7236328,8.300293,8.3007812  c0,4.5761719-3.7236328,8.2998047-8.300293,8.2998047S41.699707,41.3740234,41.699707,36.7978516z M26.9760742,88h-10.5v-4.4375  h10.5V88z M83.5239258,88h-10.5v-4.4375h10.5V88z M88,81.5625H12V70.1669922c0-2.2939453,1.8662109-4.1601562,4.159668-4.1601562  H83.840332c2.293457,0,4.159668,1.8662109,4.159668,4.1601562V81.5625z" />
      <path xmlns="http://www.w3.org/2000/svg"
        d="M31.8720703,69.0419922c-2.6152344,0-4.7426758,2.1279297-4.7426758,4.7431641s2.1274414,4.7421875,4.7426758,4.7421875  s4.7431641-2.1269531,4.7431641-4.7421875S34.4873047,69.0419922,31.8720703,69.0419922z M31.8720703,76.5273438  c-1.512207,0-2.7426758-1.2304688-2.7426758-2.7421875c0-1.5126953,1.2304688-2.7431641,2.7426758-2.7431641  c1.5126953,0,2.7431641,1.2304688,2.7431641,2.7431641C34.6152344,75.296875,33.3847656,76.5273438,31.8720703,76.5273438z" />
      <path xmlns="http://www.w3.org/2000/svg"
        d="M53.8959961,72.7851562h-11c-0.5522461,0-1,0.4472656-1,1s0.4477539,1,1,1h11c0.5522461,0,1-0.4472656,1-1  S54.4482422,72.7851562,53.8959961,72.7851562z" />
      <path xmlns="http://www.w3.org/2000/svg"
        d="M71.8706055,72.7851562h-11c-0.5522461,0-1,0.4472656-1,1s0.4477539,1,1,1h11c0.5522461,0,1-0.4472656,1-1  S72.4228516,72.7851562,71.8706055,72.7851562z" />
    </g>
  </g>
</svg>